<svg width="44" height="42" viewBox="0 0 44 42" fill="none" xmlns="http://www.w3.org/2000/svg">
<g id="mdi:twitter">
<path id="Vector" d="M41.1766 10.5C39.7649 11.1125 38.2432 11.515 36.6666 11.7075C38.2799 10.78 39.5266 9.31 40.1132 7.5425C38.5916 8.4175 36.9049 9.03 35.1266 9.38C33.6782 7.875 31.6432 7 29.3332 7C25.0249 7 21.5049 10.36 21.5049 14.5075C21.5049 15.1025 21.5782 15.68 21.7066 16.2225C15.1799 15.9075 9.36824 12.915 5.49991 8.3825C4.82158 9.485 4.43658 10.78 4.43658 12.145C4.43658 14.7525 5.81158 17.0625 7.93824 18.375C6.63658 18.375 5.42658 18.025 4.36324 17.5V17.5525C4.36324 21.1925 7.07658 24.2375 10.6699 24.92C9.51624 25.2214 8.30508 25.2633 7.13158 25.0425C7.62952 26.5343 8.60473 27.8397 9.92011 28.7751C11.2355 29.7105 12.8249 30.229 14.4649 30.2575C11.6849 32.3583 8.2389 33.4938 4.69324 33.4775C4.06991 33.4775 3.44658 33.4425 2.82324 33.3725C6.30658 35.5075 10.4499 36.75 14.8866 36.75C29.3332 36.75 37.2716 25.305 37.2716 15.3825C37.2716 15.05 37.2716 14.735 37.2532 14.4025C38.7932 13.3525 40.1132 12.0225 41.1766 10.5Z" fill="white"/>
</g>
</svg>
