<svg width="41" height="39" viewBox="0 0 41 39" fill="none" xmlns="http://www.w3.org/2000/svg">
<g id="bi:youtube" clip-path="url(#clip0_1122_1011)">
<path id="Vector" d="M20.6307 4.87256H20.8588C22.9651 4.87987 33.6379 4.953 36.5156 5.68912C37.3856 5.91378 38.1783 6.35169 38.8146 6.95908C39.4509 7.56647 39.9085 8.32207 40.1416 9.15037C40.4004 10.0766 40.5823 11.3027 40.7053 12.5677L40.7309 12.8212L40.7873 13.455L40.8078 13.7085C40.9744 15.9364 40.9949 18.0229 40.9974 18.4787V18.6615C40.9949 19.1344 40.9718 21.3622 40.7873 23.6827L40.7668 23.9387L40.7437 24.1922C40.6156 25.5864 40.426 26.9709 40.1416 27.9898C39.9092 28.8184 39.4518 29.5744 38.8154 30.1819C38.179 30.7894 37.3859 31.2271 36.5156 31.4511C33.5431 32.2116 22.2451 32.2652 20.6794 32.2676H20.3155C19.5237 32.2676 16.2488 32.253 12.8151 32.1409L12.3794 32.1262L12.1565 32.1165L11.7183 32.0994L11.2801 32.0824C8.43575 31.9629 5.72719 31.7704 4.47925 31.4486C3.60926 31.2248 2.81635 30.7875 2.17998 30.1805C1.54361 29.5734 1.08611 28.818 0.853312 27.9898C0.568875 26.9734 0.37925 25.5864 0.251125 24.1922L0.230625 23.9362L0.210125 23.6827C0.0836595 22.0311 0.0135809 20.376 0 18.72L0 18.4202C0.005125 17.8961 0.025625 16.0851 0.164 14.0863L0.181938 13.8352L0.189625 13.7085L0.210125 13.455L0.2665 12.8212L0.292125 12.5677C0.415125 11.3027 0.597062 10.0742 0.855875 9.15037C1.08828 8.32174 1.5456 7.56578 2.182 6.95828C2.8184 6.35079 3.61151 5.91311 4.48181 5.68912C5.72975 5.37225 8.43831 5.17725 11.2827 5.05537L11.7183 5.03831L12.1591 5.02368L12.3794 5.01637L12.8176 4.99931C15.2564 4.92466 17.6961 4.88322 20.1361 4.875H20.6307V4.87256ZM16.4 12.6969V24.4408L27.0523 18.5713L16.4 12.6969Z" fill="white"/>
</g>
<defs>
<clipPath id="clip0_1122_1011">
<rect width="41" height="39" fill="white"/>
</clipPath>
</defs>
</svg>
